# xmcd
#
# Track frame offsets:
#	150
#	11040
#	23420
#	37880
#	50490
#	62740
#	74798
#	85121
#	101123
#	116131
#	127996
#	146064
#	159552
#	176200
#	190718
#	210688
#	226923
#	246223
#	262623
#	282873
#
# Disc length: 3994 seconds
#
# Revision: 0
# Processed by: cddbd v1.4PL0 Copyright (c) Steve Scherf et al.
# Submitted via: EasyCDDAExtractor 4.5.0.2
#
DISCID=190f9814
DTITLE=Aretha Franklin - The Queen Of Soul
DYEAR=1900
DGENRE=blues
TTITLE0=Respect
TTITLE1=I Never Loved A Man (The Way I Love You)
TTITLE2=Do Right Woman - Do Right Man
TTITLE3=Chain Of Fools
TTITLE4=(You Make Me Feel Like) A Natural Woman
TTITLE5=Baby I Love You
TTITLE6=Think
TTITLE7=Let It Be
TTITLE8=Son Of A Preacher Man
TTITLE9=Eleanor Rigby
TTITLE10=This Girl's In Love With You
TTITLE11=The Weight
TTITLE12=Oh Me Oh My (I'm A Fool For You Baby)
TTITLE13=Rock Steady
TTITLE14=A Brand New Me
TTITLE15=I've Been Loving You Too Long
TTITLE16=So Swell When You're Well
TTITLE17=The Long And Winding Road
TTITLE18=Angel
TTITLE19=Didn't I (Blow Your Mind This Time)
EXTD=
EXTT0=
EXTT1=
EXTT2=
EXTT3=
EXTT4=
EXTT5=
EXTT6=
EXTT7=
EXTT8=
EXTT9=
EXTT10=
EXTT11=
EXTT12=
EXTT13=
EXTT14=
EXTT15=
EXTT16=
EXTT17=
EXTT18=
EXTT19=
PLAYORDER=
